<mxfile host="Electron" agent="Mozilla/5.0 (Windows NT 10.0; Win64; x64) AppleWebKit/537.36 (KHTML, like Gecko) draw.io/24.7.8 Chrome/128.0.6613.36 Electron/32.0.1 Safari/537.36" version="24.7.8" pages="2">
  <diagram id="NOM8anwrGY0vD3N4bkU8" name="fc">
    <mxGraphModel dx="882" dy="677" grid="1" gridSize="10" guides="1" tooltips="1" connect="1" arrows="1" fold="1" page="1" pageScale="1" pageWidth="827" pageHeight="1169" math="0" shadow="0">
      <root>
        <mxCell id="0" />
        <mxCell id="1" parent="0" />
        <mxCell id="uW07jnZ9L-fBE1Aekj6P-8" style="edgeStyle=orthogonalEdgeStyle;rounded=0;orthogonalLoop=1;jettySize=auto;html=1;exitX=0.5;exitY=1;exitDx=0;exitDy=0;entryX=0.5;entryY=0;entryDx=0;entryDy=0;endArrow=block;endFill=1;" parent="1" source="uW07jnZ9L-fBE1Aekj6P-1" target="uW07jnZ9L-fBE1Aekj6P-2" edge="1">
          <mxGeometry relative="1" as="geometry" />
        </mxCell>
        <mxCell id="uW07jnZ9L-fBE1Aekj6P-1" value="Start" style="rounded=1;whiteSpace=wrap;html=1;" parent="1" vertex="1">
          <mxGeometry x="200" y="100" width="120" height="60" as="geometry" />
        </mxCell>
        <mxCell id="uW07jnZ9L-fBE1Aekj6P-9" style="edgeStyle=orthogonalEdgeStyle;rounded=0;orthogonalLoop=1;jettySize=auto;html=1;exitX=0.5;exitY=1;exitDx=0;exitDy=0;entryX=0.5;entryY=0;entryDx=0;entryDy=0;endArrow=block;endFill=1;" parent="1" source="uW07jnZ9L-fBE1Aekj6P-2" target="uW07jnZ9L-fBE1Aekj6P-3" edge="1">
          <mxGeometry relative="1" as="geometry" />
        </mxCell>
        <mxCell id="uW07jnZ9L-fBE1Aekj6P-2" value="" style="verticalLabelPosition=bottom;verticalAlign=top;html=1;shape=hexagon;perimeter=hexagonPerimeter2;arcSize=6;size=0.16666666666666666;" parent="1" vertex="1">
          <mxGeometry x="200" y="200" width="120" height="60" as="geometry" />
        </mxCell>
        <mxCell id="uW07jnZ9L-fBE1Aekj6P-10" style="edgeStyle=orthogonalEdgeStyle;rounded=0;orthogonalLoop=1;jettySize=auto;html=1;exitX=0.5;exitY=1;exitDx=0;exitDy=0;entryX=0.5;entryY=0;entryDx=0;entryDy=0;endArrow=block;endFill=1;" parent="1" source="uW07jnZ9L-fBE1Aekj6P-3" target="uW07jnZ9L-fBE1Aekj6P-7" edge="1">
          <mxGeometry relative="1" as="geometry" />
        </mxCell>
        <mxCell id="uW07jnZ9L-fBE1Aekj6P-3" value="get valid hits from&lt;br&gt;6 players" style="rounded=0;whiteSpace=wrap;html=1;" parent="1" vertex="1">
          <mxGeometry x="200" y="300" width="120" height="60" as="geometry" />
        </mxCell>
        <mxCell id="uW07jnZ9L-fBE1Aekj6P-15" style="edgeStyle=orthogonalEdgeStyle;rounded=0;orthogonalLoop=1;jettySize=auto;html=1;exitX=0.5;exitY=1;exitDx=0;exitDy=0;entryX=0.5;entryY=0;entryDx=0;entryDy=0;endArrow=block;endFill=1;" parent="1" source="uW07jnZ9L-fBE1Aekj6P-4" target="uW07jnZ9L-fBE1Aekj6P-14" edge="1">
          <mxGeometry relative="1" as="geometry" />
        </mxCell>
        <mxCell id="uW07jnZ9L-fBE1Aekj6P-4" value="calculate points earned" style="rounded=0;whiteSpace=wrap;html=1;" parent="1" vertex="1">
          <mxGeometry x="200" y="700" width="120" height="60" as="geometry" />
        </mxCell>
        <mxCell id="uW07jnZ9L-fBE1Aekj6P-12" style="edgeStyle=orthogonalEdgeStyle;rounded=0;orthogonalLoop=1;jettySize=auto;html=1;exitX=0.5;exitY=1;exitDx=0;exitDy=0;endArrow=block;endFill=1;" parent="1" source="uW07jnZ9L-fBE1Aekj6P-5" target="uW07jnZ9L-fBE1Aekj6P-6" edge="1">
          <mxGeometry relative="1" as="geometry" />
        </mxCell>
        <mxCell id="uW07jnZ9L-fBE1Aekj6P-5" value="calculate average&lt;br&gt;hits" style="rounded=0;whiteSpace=wrap;html=1;" parent="1" vertex="1">
          <mxGeometry x="200" y="500" width="120" height="60" as="geometry" />
        </mxCell>
        <mxCell id="uW07jnZ9L-fBE1Aekj6P-13" style="edgeStyle=orthogonalEdgeStyle;rounded=0;orthogonalLoop=1;jettySize=auto;html=1;exitX=0.5;exitY=1;exitDx=0;exitDy=0;entryX=0.5;entryY=0;entryDx=0;entryDy=0;endArrow=block;endFill=1;" parent="1" source="uW07jnZ9L-fBE1Aekj6P-6" target="uW07jnZ9L-fBE1Aekj6P-4" edge="1">
          <mxGeometry relative="1" as="geometry" />
        </mxCell>
        <mxCell id="uW07jnZ9L-fBE1Aekj6P-6" value="round average hits to 2 decimal places" style="shape=process;whiteSpace=wrap;html=1;backgroundOutline=1;" parent="1" vertex="1">
          <mxGeometry x="200" y="600" width="120" height="60" as="geometry" />
        </mxCell>
        <mxCell id="uW07jnZ9L-fBE1Aekj6P-11" style="edgeStyle=orthogonalEdgeStyle;rounded=0;orthogonalLoop=1;jettySize=auto;html=1;exitX=0.5;exitY=1;exitDx=0;exitDy=0;entryX=0.5;entryY=0;entryDx=0;entryDy=0;endArrow=block;endFill=1;" parent="1" source="uW07jnZ9L-fBE1Aekj6P-7" target="uW07jnZ9L-fBE1Aekj6P-5" edge="1">
          <mxGeometry relative="1" as="geometry" />
        </mxCell>
        <mxCell id="uW07jnZ9L-fBE1Aekj6P-7" value="calculate total hits&lt;br&gt;for 6 players" style="rounded=0;whiteSpace=wrap;html=1;" parent="1" vertex="1">
          <mxGeometry x="200" y="400" width="120" height="60" as="geometry" />
        </mxCell>
        <mxCell id="uW07jnZ9L-fBE1Aekj6P-14" value="" style="ellipse;whiteSpace=wrap;html=1;aspect=fixed;" parent="1" vertex="1">
          <mxGeometry x="250" y="800" width="20" height="20" as="geometry" />
        </mxCell>
        <mxCell id="uW07jnZ9L-fBE1Aekj6P-26" style="edgeStyle=orthogonalEdgeStyle;rounded=0;orthogonalLoop=1;jettySize=auto;html=1;exitX=0.5;exitY=1;exitDx=0;exitDy=0;entryX=0.5;entryY=0;entryDx=0;entryDy=0;endArrow=block;endFill=1;" parent="1" source="uW07jnZ9L-fBE1Aekj6P-18" target="uW07jnZ9L-fBE1Aekj6P-19" edge="1">
          <mxGeometry relative="1" as="geometry" />
        </mxCell>
        <mxCell id="uW07jnZ9L-fBE1Aekj6P-29" style="edgeStyle=orthogonalEdgeStyle;rounded=0;orthogonalLoop=1;jettySize=auto;html=1;exitX=1;exitY=0.5;exitDx=0;exitDy=0;endArrow=block;endFill=1;entryX=0.5;entryY=0;entryDx=0;entryDy=0;" parent="1" source="uW07jnZ9L-fBE1Aekj6P-18" target="uW07jnZ9L-fBE1Aekj6P-23" edge="1">
          <mxGeometry relative="1" as="geometry">
            <mxPoint x="680.0000000000001" y="310.0952380952381" as="targetPoint" />
          </mxGeometry>
        </mxCell>
        <mxCell id="uW07jnZ9L-fBE1Aekj6P-18" value="1 point earned?" style="rhombus;whiteSpace=wrap;html=1;" parent="1" vertex="1">
          <mxGeometry x="430" y="280" width="140" height="60" as="geometry" />
        </mxCell>
        <mxCell id="uW07jnZ9L-fBE1Aekj6P-27" style="edgeStyle=orthogonalEdgeStyle;rounded=0;orthogonalLoop=1;jettySize=auto;html=1;exitX=0.5;exitY=1;exitDx=0;exitDy=0;entryX=0.5;entryY=0;entryDx=0;entryDy=0;endArrow=block;endFill=1;" parent="1" source="uW07jnZ9L-fBE1Aekj6P-19" target="uW07jnZ9L-fBE1Aekj6P-20" edge="1">
          <mxGeometry relative="1" as="geometry" />
        </mxCell>
        <mxCell id="uW07jnZ9L-fBE1Aekj6P-30" style="edgeStyle=orthogonalEdgeStyle;rounded=0;orthogonalLoop=1;jettySize=auto;html=1;exitX=1;exitY=0.5;exitDx=0;exitDy=0;entryX=0.5;entryY=0;entryDx=0;entryDy=0;endArrow=block;endFill=1;" parent="1" source="uW07jnZ9L-fBE1Aekj6P-19" target="uW07jnZ9L-fBE1Aekj6P-24" edge="1">
          <mxGeometry relative="1" as="geometry" />
        </mxCell>
        <mxCell id="uW07jnZ9L-fBE1Aekj6P-19" value="&lt;span&gt;2 points earned?&lt;/span&gt;" style="rhombus;whiteSpace=wrap;html=1;" parent="1" vertex="1">
          <mxGeometry x="430" y="440" width="140" height="60" as="geometry" />
        </mxCell>
        <mxCell id="uW07jnZ9L-fBE1Aekj6P-28" style="edgeStyle=orthogonalEdgeStyle;rounded=0;orthogonalLoop=1;jettySize=auto;html=1;exitX=0.5;exitY=1;exitDx=0;exitDy=0;entryX=0.5;entryY=0;entryDx=0;entryDy=0;endArrow=block;endFill=1;" parent="1" source="uW07jnZ9L-fBE1Aekj6P-20" target="uW07jnZ9L-fBE1Aekj6P-21" edge="1">
          <mxGeometry relative="1" as="geometry" />
        </mxCell>
        <mxCell id="uW07jnZ9L-fBE1Aekj6P-36" style="edgeStyle=orthogonalEdgeStyle;rounded=0;orthogonalLoop=1;jettySize=auto;html=1;exitX=1;exitY=0.5;exitDx=0;exitDy=0;entryX=0.5;entryY=0;entryDx=0;entryDy=0;endArrow=block;endFill=1;" parent="1" source="uW07jnZ9L-fBE1Aekj6P-20" target="uW07jnZ9L-fBE1Aekj6P-35" edge="1">
          <mxGeometry relative="1" as="geometry" />
        </mxCell>
        <mxCell id="uW07jnZ9L-fBE1Aekj6P-20" value="0 points earned" style="rhombus;whiteSpace=wrap;html=1;" parent="1" vertex="1">
          <mxGeometry x="430" y="600" width="140" height="60" as="geometry" />
        </mxCell>
        <mxCell id="uW07jnZ9L-fBE1Aekj6P-21" value="End" style="rounded=1;whiteSpace=wrap;html=1;" parent="1" vertex="1">
          <mxGeometry x="440" y="760" width="120" height="60" as="geometry" />
        </mxCell>
        <mxCell id="uW07jnZ9L-fBE1Aekj6P-25" style="edgeStyle=orthogonalEdgeStyle;rounded=0;orthogonalLoop=1;jettySize=auto;html=1;exitX=0.5;exitY=1;exitDx=0;exitDy=0;entryX=0.5;entryY=0;entryDx=0;entryDy=0;endArrow=block;endFill=1;" parent="1" source="uW07jnZ9L-fBE1Aekj6P-22" target="uW07jnZ9L-fBE1Aekj6P-18" edge="1">
          <mxGeometry relative="1" as="geometry" />
        </mxCell>
        <mxCell id="uW07jnZ9L-fBE1Aekj6P-22" value="" style="ellipse;whiteSpace=wrap;html=1;aspect=fixed;" parent="1" vertex="1">
          <mxGeometry x="490" y="220" width="20" height="20" as="geometry" />
        </mxCell>
        <mxCell id="uW07jnZ9L-fBE1Aekj6P-32" style="edgeStyle=orthogonalEdgeStyle;rounded=0;orthogonalLoop=1;jettySize=auto;html=1;exitX=0.5;exitY=1;exitDx=0;exitDy=0;endArrow=block;endFill=1;" parent="1" source="uW07jnZ9L-fBE1Aekj6P-23" edge="1">
          <mxGeometry relative="1" as="geometry">
            <mxPoint x="500" y="420" as="targetPoint" />
            <Array as="points">
              <mxPoint x="660" y="420" />
            </Array>
          </mxGeometry>
        </mxCell>
        <mxCell id="uW07jnZ9L-fBE1Aekj6P-23" value="display message&lt;br&gt;stating that&lt;br&gt;1 point was earned" style="shape=parallelogram;perimeter=parallelogramPerimeter;whiteSpace=wrap;html=1;fixedSize=1;" parent="1" vertex="1">
          <mxGeometry x="590" y="340" width="140" height="60" as="geometry" />
        </mxCell>
        <mxCell id="uW07jnZ9L-fBE1Aekj6P-31" style="edgeStyle=orthogonalEdgeStyle;rounded=0;orthogonalLoop=1;jettySize=auto;html=1;exitX=0.5;exitY=1;exitDx=0;exitDy=0;endArrow=block;endFill=1;" parent="1" source="uW07jnZ9L-fBE1Aekj6P-24" edge="1">
          <mxGeometry relative="1" as="geometry">
            <mxPoint x="500" y="580" as="targetPoint" />
            <Array as="points">
              <mxPoint x="660" y="580" />
            </Array>
          </mxGeometry>
        </mxCell>
        <mxCell id="uW07jnZ9L-fBE1Aekj6P-24" value="display message&lt;br&gt;stating that an&lt;br&gt;additional point&lt;br&gt;was earned" style="shape=parallelogram;perimeter=parallelogramPerimeter;whiteSpace=wrap;html=1;fixedSize=1;" parent="1" vertex="1">
          <mxGeometry x="590" y="500" width="140" height="60" as="geometry" />
        </mxCell>
        <mxCell id="uW07jnZ9L-fBE1Aekj6P-34" value="Initialise variables and data structures as required" style="text;html=1;strokeColor=none;fillColor=none;align=center;verticalAlign=middle;whiteSpace=wrap;rounded=0;" parent="1" vertex="1">
          <mxGeometry x="200" y="200" width="120" height="60" as="geometry" />
        </mxCell>
        <mxCell id="uW07jnZ9L-fBE1Aekj6P-37" style="edgeStyle=orthogonalEdgeStyle;rounded=0;orthogonalLoop=1;jettySize=auto;html=1;exitX=0.5;exitY=1;exitDx=0;exitDy=0;endArrow=block;endFill=1;" parent="1" source="uW07jnZ9L-fBE1Aekj6P-35" edge="1">
          <mxGeometry relative="1" as="geometry">
            <mxPoint x="500" y="740" as="targetPoint" />
            <Array as="points">
              <mxPoint x="660" y="740" />
            </Array>
          </mxGeometry>
        </mxCell>
        <mxCell id="uW07jnZ9L-fBE1Aekj6P-35" value="display message&lt;br&gt;stating that no&lt;br&gt;points were earned" style="shape=parallelogram;perimeter=parallelogramPerimeter;whiteSpace=wrap;html=1;fixedSize=1;" parent="1" vertex="1">
          <mxGeometry x="590" y="660" width="140" height="60" as="geometry" />
        </mxCell>
        <mxCell id="uW07jnZ9L-fBE1Aekj6P-38" value="Yes" style="text;html=1;strokeColor=none;fillColor=none;align=center;verticalAlign=middle;whiteSpace=wrap;rounded=0;" parent="1" vertex="1">
          <mxGeometry x="560" y="290" width="40" height="20" as="geometry" />
        </mxCell>
        <mxCell id="uW07jnZ9L-fBE1Aekj6P-39" value="Yes" style="text;html=1;strokeColor=none;fillColor=none;align=center;verticalAlign=middle;whiteSpace=wrap;rounded=0;" parent="1" vertex="1">
          <mxGeometry x="570" y="610" width="40" height="20" as="geometry" />
        </mxCell>
        <mxCell id="uW07jnZ9L-fBE1Aekj6P-40" value="Yes" style="text;html=1;strokeColor=none;fillColor=none;align=center;verticalAlign=middle;whiteSpace=wrap;rounded=0;" parent="1" vertex="1">
          <mxGeometry x="570" y="450" width="40" height="20" as="geometry" />
        </mxCell>
        <mxCell id="uW07jnZ9L-fBE1Aekj6P-41" value="No" style="text;html=1;strokeColor=none;fillColor=none;align=center;verticalAlign=middle;whiteSpace=wrap;rounded=0;" parent="1" vertex="1">
          <mxGeometry x="500" y="660" width="40" height="20" as="geometry" />
        </mxCell>
        <mxCell id="uW07jnZ9L-fBE1Aekj6P-43" value="No" style="text;html=1;strokeColor=none;fillColor=none;align=center;verticalAlign=middle;whiteSpace=wrap;rounded=0;" parent="1" vertex="1">
          <mxGeometry x="500" y="340" width="40" height="20" as="geometry" />
        </mxCell>
        <mxCell id="uW07jnZ9L-fBE1Aekj6P-44" value="No" style="text;html=1;strokeColor=none;fillColor=none;align=center;verticalAlign=middle;whiteSpace=wrap;rounded=0;" parent="1" vertex="1">
          <mxGeometry x="500" y="500" width="40" height="20" as="geometry" />
        </mxCell>
      </root>
    </mxGraphModel>
  </diagram>
  <diagram id="136eWdcS5rs--WhQTg2O" name="test">
    <mxGraphModel dx="882" dy="677" grid="1" gridSize="10" guides="1" tooltips="1" connect="1" arrows="1" fold="1" page="1" pageScale="1" pageWidth="827" pageHeight="1169" math="0" shadow="0">
      <root>
        <mxCell id="gdV_OLfHPDwzQ4YK67qN-0" />
        <mxCell id="gdV_OLfHPDwzQ4YK67qN-1" parent="gdV_OLfHPDwzQ4YK67qN-0" />
        <mxCell id="gdV_OLfHPDwzQ4YK67qN-43" value="" style="rounded=0;whiteSpace=wrap;html=1;fillColor=#eeeeee;strokeColor=#36393d;" parent="gdV_OLfHPDwzQ4YK67qN-1" vertex="1">
          <mxGeometry x="230" y="360" width="180" height="120" as="geometry" />
        </mxCell>
        <mxCell id="gdV_OLfHPDwzQ4YK67qN-41" value="" style="rounded=0;whiteSpace=wrap;html=1;fillColor=#eeeeee;strokeColor=#36393d;" parent="gdV_OLfHPDwzQ4YK67qN-1" vertex="1">
          <mxGeometry x="230" y="240" width="180" height="120" as="geometry" />
        </mxCell>
        <mxCell id="gdV_OLfHPDwzQ4YK67qN-14" value="Player 1" style="rounded=0;whiteSpace=wrap;html=1;fillColor=#eeeeee;strokeColor=#36393d;" parent="gdV_OLfHPDwzQ4YK67qN-1" vertex="1">
          <mxGeometry x="240" y="240" width="80" height="20" as="geometry" />
        </mxCell>
        <mxCell id="gdV_OLfHPDwzQ4YK67qN-15" value="Player 2" style="rounded=0;whiteSpace=wrap;html=1;" parent="gdV_OLfHPDwzQ4YK67qN-1" vertex="1">
          <mxGeometry x="240" y="260" width="80" height="20" as="geometry" />
        </mxCell>
        <mxCell id="gdV_OLfHPDwzQ4YK67qN-16" value="Player 3" style="rounded=0;whiteSpace=wrap;html=1;" parent="gdV_OLfHPDwzQ4YK67qN-1" vertex="1">
          <mxGeometry x="240" y="280" width="80" height="20" as="geometry" />
        </mxCell>
        <mxCell id="gdV_OLfHPDwzQ4YK67qN-17" value="Player 4" style="rounded=0;whiteSpace=wrap;html=1;fillColor=#eeeeee;strokeColor=#36393d;" parent="gdV_OLfHPDwzQ4YK67qN-1" vertex="1">
          <mxGeometry x="240" y="300" width="80" height="20" as="geometry" />
        </mxCell>
        <mxCell id="gdV_OLfHPDwzQ4YK67qN-18" value="Player 5" style="rounded=0;whiteSpace=wrap;html=1;fillColor=#eeeeee;strokeColor=#36393d;" parent="gdV_OLfHPDwzQ4YK67qN-1" vertex="1">
          <mxGeometry x="240" y="320" width="80" height="20" as="geometry" />
        </mxCell>
        <mxCell id="gdV_OLfHPDwzQ4YK67qN-19" value="Player 6" style="rounded=0;whiteSpace=wrap;html=1;fillColor=#eeeeee;strokeColor=#36393d;" parent="gdV_OLfHPDwzQ4YK67qN-1" vertex="1">
          <mxGeometry x="240" y="340" width="80" height="20" as="geometry" />
        </mxCell>
        <mxCell id="gdV_OLfHPDwzQ4YK67qN-20" value="" style="rounded=0;whiteSpace=wrap;html=1;" parent="gdV_OLfHPDwzQ4YK67qN-1" vertex="1">
          <mxGeometry x="320" y="240" width="80" height="20" as="geometry" />
        </mxCell>
        <mxCell id="gdV_OLfHPDwzQ4YK67qN-21" value="" style="rounded=0;whiteSpace=wrap;html=1;" parent="gdV_OLfHPDwzQ4YK67qN-1" vertex="1">
          <mxGeometry x="320" y="260" width="80" height="20" as="geometry" />
        </mxCell>
        <mxCell id="gdV_OLfHPDwzQ4YK67qN-22" value="" style="rounded=0;whiteSpace=wrap;html=1;" parent="gdV_OLfHPDwzQ4YK67qN-1" vertex="1">
          <mxGeometry x="320" y="280" width="80" height="20" as="geometry" />
        </mxCell>
        <mxCell id="gdV_OLfHPDwzQ4YK67qN-23" value="" style="rounded=0;whiteSpace=wrap;html=1;" parent="gdV_OLfHPDwzQ4YK67qN-1" vertex="1">
          <mxGeometry x="320" y="300" width="80" height="20" as="geometry" />
        </mxCell>
        <mxCell id="gdV_OLfHPDwzQ4YK67qN-24" value="" style="rounded=0;whiteSpace=wrap;html=1;" parent="gdV_OLfHPDwzQ4YK67qN-1" vertex="1">
          <mxGeometry x="320" y="320" width="80" height="20" as="geometry" />
        </mxCell>
        <mxCell id="gdV_OLfHPDwzQ4YK67qN-25" value="" style="rounded=0;whiteSpace=wrap;html=1;" parent="gdV_OLfHPDwzQ4YK67qN-1" vertex="1">
          <mxGeometry x="320" y="340" width="80" height="20" as="geometry" />
        </mxCell>
        <mxCell id="gdV_OLfHPDwzQ4YK67qN-26" value="Player 1" style="rounded=0;whiteSpace=wrap;html=1;fillColor=#eeeeee;strokeColor=#36393d;" parent="gdV_OLfHPDwzQ4YK67qN-1" vertex="1">
          <mxGeometry x="240" y="360" width="80" height="20" as="geometry" />
        </mxCell>
        <mxCell id="gdV_OLfHPDwzQ4YK67qN-27" value="Player 2" style="rounded=0;whiteSpace=wrap;html=1;fillColor=#eeeeee;strokeColor=#36393d;" parent="gdV_OLfHPDwzQ4YK67qN-1" vertex="1">
          <mxGeometry x="240" y="380" width="80" height="20" as="geometry" />
        </mxCell>
        <mxCell id="gdV_OLfHPDwzQ4YK67qN-28" value="Player 3" style="rounded=0;whiteSpace=wrap;html=1;fillColor=#eeeeee;strokeColor=#36393d;" parent="gdV_OLfHPDwzQ4YK67qN-1" vertex="1">
          <mxGeometry x="240" y="400" width="80" height="20" as="geometry" />
        </mxCell>
        <mxCell id="gdV_OLfHPDwzQ4YK67qN-29" value="Player 4" style="rounded=0;whiteSpace=wrap;html=1;fillColor=#eeeeee;strokeColor=#36393d;" parent="gdV_OLfHPDwzQ4YK67qN-1" vertex="1">
          <mxGeometry x="240" y="420" width="80" height="20" as="geometry" />
        </mxCell>
        <mxCell id="gdV_OLfHPDwzQ4YK67qN-30" value="Player 5" style="rounded=0;whiteSpace=wrap;html=1;fillColor=#eeeeee;strokeColor=#36393d;" parent="gdV_OLfHPDwzQ4YK67qN-1" vertex="1">
          <mxGeometry x="240" y="440" width="80" height="20" as="geometry" />
        </mxCell>
        <mxCell id="gdV_OLfHPDwzQ4YK67qN-31" value="Player 6" style="rounded=0;whiteSpace=wrap;html=1;fillColor=#eeeeee;strokeColor=#36393d;" parent="gdV_OLfHPDwzQ4YK67qN-1" vertex="1">
          <mxGeometry x="240" y="460" width="80" height="20" as="geometry" />
        </mxCell>
        <mxCell id="gdV_OLfHPDwzQ4YK67qN-32" value="" style="rounded=0;whiteSpace=wrap;html=1;" parent="gdV_OLfHPDwzQ4YK67qN-1" vertex="1">
          <mxGeometry x="320" y="360" width="80" height="20" as="geometry" />
        </mxCell>
        <mxCell id="gdV_OLfHPDwzQ4YK67qN-33" value="" style="rounded=0;whiteSpace=wrap;html=1;" parent="gdV_OLfHPDwzQ4YK67qN-1" vertex="1">
          <mxGeometry x="320" y="380" width="80" height="20" as="geometry" />
        </mxCell>
        <mxCell id="gdV_OLfHPDwzQ4YK67qN-34" value="" style="rounded=0;whiteSpace=wrap;html=1;" parent="gdV_OLfHPDwzQ4YK67qN-1" vertex="1">
          <mxGeometry x="320" y="400" width="80" height="20" as="geometry" />
        </mxCell>
        <mxCell id="gdV_OLfHPDwzQ4YK67qN-35" value="" style="rounded=0;whiteSpace=wrap;html=1;" parent="gdV_OLfHPDwzQ4YK67qN-1" vertex="1">
          <mxGeometry x="320" y="420" width="80" height="20" as="geometry" />
        </mxCell>
        <mxCell id="gdV_OLfHPDwzQ4YK67qN-36" value="" style="rounded=0;whiteSpace=wrap;html=1;" parent="gdV_OLfHPDwzQ4YK67qN-1" vertex="1">
          <mxGeometry x="320" y="440" width="80" height="20" as="geometry" />
        </mxCell>
        <mxCell id="gdV_OLfHPDwzQ4YK67qN-37" value="" style="rounded=0;whiteSpace=wrap;html=1;" parent="gdV_OLfHPDwzQ4YK67qN-1" vertex="1">
          <mxGeometry x="320" y="460" width="80" height="20" as="geometry" />
        </mxCell>
        <mxCell id="gdV_OLfHPDwzQ4YK67qN-38" value="Player 1" style="rounded=0;whiteSpace=wrap;html=1;fillColor=#eeeeee;strokeColor=#36393d;" parent="gdV_OLfHPDwzQ4YK67qN-1" vertex="1">
          <mxGeometry x="240" y="240" width="80" height="20" as="geometry" />
        </mxCell>
        <mxCell id="gdV_OLfHPDwzQ4YK67qN-39" value="Player 2" style="rounded=0;whiteSpace=wrap;html=1;fillColor=#eeeeee;strokeColor=#36393d;" parent="gdV_OLfHPDwzQ4YK67qN-1" vertex="1">
          <mxGeometry x="240" y="260" width="80" height="20" as="geometry" />
        </mxCell>
        <mxCell id="gdV_OLfHPDwzQ4YK67qN-40" value="Player 3" style="rounded=0;whiteSpace=wrap;html=1;fillColor=#eeeeee;strokeColor=#36393d;" parent="gdV_OLfHPDwzQ4YK67qN-1" vertex="1">
          <mxGeometry x="240" y="280" width="80" height="20" as="geometry" />
        </mxCell>
        <mxCell id="gdV_OLfHPDwzQ4YK67qN-44" value="Normal" style="rounded=0;whiteSpace=wrap;html=1;fillColor=#eeeeee;strokeColor=#36393d;verticalAlign=top;align=left;" parent="gdV_OLfHPDwzQ4YK67qN-1" vertex="1">
          <mxGeometry x="170" y="240" width="60" height="120" as="geometry" />
        </mxCell>
        <mxCell id="gdV_OLfHPDwzQ4YK67qN-45" value="Normal" style="rounded=0;whiteSpace=wrap;html=1;fillColor=#eeeeee;strokeColor=#36393d;verticalAlign=top;align=left;" parent="gdV_OLfHPDwzQ4YK67qN-1" vertex="1">
          <mxGeometry x="170" y="360" width="60" height="120" as="geometry" />
        </mxCell>
        <mxCell id="gdV_OLfHPDwzQ4YK67qN-46" value="Program displays message stating one point earned." style="rounded=0;whiteSpace=wrap;html=1;fillColor=#eeeeee;strokeColor=#36393d;verticalAlign=top;align=left;" parent="gdV_OLfHPDwzQ4YK67qN-1" vertex="1">
          <mxGeometry x="410" y="240" width="120" height="120" as="geometry" />
        </mxCell>
        <mxCell id="gdV_OLfHPDwzQ4YK67qN-47" value="Program displays message stating two points earned." style="rounded=0;whiteSpace=wrap;html=1;fillColor=#eeeeee;strokeColor=#36393d;verticalAlign=top;align=left;" parent="gdV_OLfHPDwzQ4YK67qN-1" vertex="1">
          <mxGeometry x="410" y="360" width="120" height="120" as="geometry" />
        </mxCell>
        <mxCell id="gdV_OLfHPDwzQ4YK67qN-48" value="Type of test" style="rounded=0;whiteSpace=wrap;html=1;fillColor=#BFBFBF;strokeColor=#36393d;verticalAlign=middle;align=left;fontStyle=1" parent="gdV_OLfHPDwzQ4YK67qN-1" vertex="1">
          <mxGeometry x="170" y="200" width="60" height="40" as="geometry" />
        </mxCell>
        <mxCell id="gdV_OLfHPDwzQ4YK67qN-49" value="Input" style="rounded=0;whiteSpace=wrap;html=1;fillColor=#BFBFBF;strokeColor=#36393d;verticalAlign=middle;align=left;fontStyle=1" parent="gdV_OLfHPDwzQ4YK67qN-1" vertex="1">
          <mxGeometry x="230" y="200" width="180" height="40" as="geometry" />
        </mxCell>
        <mxCell id="gdV_OLfHPDwzQ4YK67qN-50" value="Expected output" style="rounded=0;whiteSpace=wrap;html=1;fillColor=#BFBFBF;strokeColor=#36393d;verticalAlign=middle;align=left;fontStyle=1" parent="gdV_OLfHPDwzQ4YK67qN-1" vertex="1">
          <mxGeometry x="410" y="200" width="120" height="40" as="geometry" />
        </mxCell>
        <mxCell id="gdV_OLfHPDwzQ4YK67qN-51" value="Actual output" style="rounded=0;whiteSpace=wrap;html=1;fillColor=#BFBFBF;strokeColor=#36393d;verticalAlign=middle;align=left;fontStyle=1" parent="gdV_OLfHPDwzQ4YK67qN-1" vertex="1">
          <mxGeometry x="530" y="200" width="120" height="40" as="geometry" />
        </mxCell>
        <mxCell id="gdV_OLfHPDwzQ4YK67qN-52" value="" style="rounded=0;whiteSpace=wrap;html=1;verticalAlign=top;align=left;" parent="gdV_OLfHPDwzQ4YK67qN-1" vertex="1">
          <mxGeometry x="530" y="240" width="120" height="120" as="geometry" />
        </mxCell>
        <mxCell id="gdV_OLfHPDwzQ4YK67qN-54" value="" style="rounded=0;whiteSpace=wrap;html=1;verticalAlign=top;align=left;" parent="gdV_OLfHPDwzQ4YK67qN-1" vertex="1">
          <mxGeometry x="530" y="360" width="120" height="120" as="geometry" />
        </mxCell>
        <mxCell id="gdV_OLfHPDwzQ4YK67qN-55" value="" style="endArrow=none;html=1;rounded=0;exitX=0;exitY=0;exitDx=0;exitDy=0;entryX=0.94;entryY=0.999;entryDx=0;entryDy=0;entryPerimeter=0;strokeWidth=2;" parent="gdV_OLfHPDwzQ4YK67qN-1" source="gdV_OLfHPDwzQ4YK67qN-26" target="gdV_OLfHPDwzQ4YK67qN-41" edge="1">
          <mxGeometry width="50" height="50" relative="1" as="geometry">
            <mxPoint x="390" y="390" as="sourcePoint" />
            <mxPoint x="440" y="340" as="targetPoint" />
          </mxGeometry>
        </mxCell>
      </root>
    </mxGraphModel>
  </diagram>
</mxfile>
